# xmcd
# 
# Track frame offsets:
#     150
#     12755
#     22110
#     32325
#     57495
#     68940
#     79787
#     86402
#     100372
#     114217
#     137315
#     151145
#     173097
#     185715
#     204112
#     215545
#     227022
#     238337
#     254635
#     280572
#     301035
#     323377
#     342620
# 
# Disc length: 4773
# 
# Revision: 3
# Processed by: cddbd v1.5.2PL0 Copyright (c) Steve Scherf et al.
# Submitted via: fre:ac v1.0.17
# 
DISCID=2e12a317
DTITLE=Gilles Vigneault - Au doux milieu de vous - 40 ans de chansons
DYEAR=2002
DGENRE=Chanson
TTITLE0=Au doux milieu de vous
TTITLE1=Tam di de lam
TTITLE2=J'ai pour toi un lac
TTITLE3=Mettez votre parka
TTITLE4=Jos Monferrand
TTITLE5=Si les bateaux
TTITLE6=Le Reel du Portageur (Instrumentale)
TTITLE7=La Mer, l'amour, la mort
TTITLE8=Jean-du-Sud
TTITLE9=Ton père est parti
TTITLE10=Quand vous mourrez de nos amours
TTITLE11=La Vieille École
TTITLE12=Mon pays
TTITLE13=Ah! Que l'hiver
TTITLE14=Jack Monoloy
TTITLE15=Petite berceuse du début de la colonie
TTITLE16=Ici ailleurs (Instrumentale)
TTITLE17=Le Chant du portageur
TTITLE18=Gros Pierre
TTITLE19=Tante Irène
TTITLE20=Charlie-Jos
TTITLE21=Le Voyageur sédentaire
TTITLE22=Les Gens de mon pays
EXTD=
EXTT0=
EXTT1=
EXTT2=
EXTT3=
EXTT4=
EXTT5=
EXTT6=
EXTT7=
EXTT8=
EXTT9=
EXTT10=
EXTT11=
EXTT12=
EXTT13=
EXTT14=
EXTT15=
EXTT16=
EXTT17=
EXTT18=
EXTT19=
EXTT20=
EXTT21=
EXTT22=
PLAYORDER=
